<?xml version="1.0" encoding="UTF-8"?>
<svg width="35.0000008px" height="28px" viewBox="0 0 35.0000008 28" version="1.1" xmlns="http://www.w3.org/2000/svg" xmlns:xlink="http://www.w3.org/1999/xlink">
    <title>chatBot-white</title>
    <g id="Page-1" stroke="none" stroke-width="1" fill="none" fill-rule="evenodd">
        <g id="Medium-1" transform="translate(-939.000000, -378.500000)" fill="#FFFFFF" fill-rule="nonzero">
            <g id="chat-group-screen" transform="translate(925.000000, 362.000000)">
                <g id="chatBot-white" transform="translate(14.000000, 16.500000)">
                    <path d="M33.25,8.70078158 C32.219142,8.70078158 31.8587499,9.42867208 31.7717953,9.57578158 L29.75,9.57578158 L29.75,4.375 C29.75,1.95890665 27.7921882,0 25.375,0 L9.625,0 C7.20781267,0 5.25,1.95890665 5.25,4.375 L5.25,9.57578158 L3.22820306,9.57578158 C3.14125013,9.47734308 2.78085971,8.70078158 1.75,8.70078158 C0.817031384,8.70078158 0,9.45109415 0,10.4507816 C0,11.451563 0.818671942,12.1515632 1.75,12.1515632 C2.78085971,12.1515632 3.14125097,11.4242193 3.22820389,11.3257816 L5.25000083,11.3257816 L5.25000083,18.2765632 C5.25000083,20.6926565 7.20890749,22.6515632 9.62500083,22.6515632 L12.2500008,22.7007816 L12.2500008,27.2939842 C12.2500008,27.5242181 12.3976569,28 12.9062508,28 C13.0441178,28 13.179579,27.95578 13.294313,27.8726873 L20.1250008,22.7007816 L25.3750008,22.7011037 C27.7910942,22.7011037 29.7500008,20.742197 29.7500008,18.3261037 L29.7500008,11.3257816 L31.7723435,11.3257816 C31.860937,11.5226561 32.2218765,12.2007816 33.2500008,12.2007816 C34.1829695,12.2007816 35,11.450469 35,10.5 C35,9.49921942 34.1851557,8.70078158 33.2500008,8.70078158 L33.25,8.70078158 Z M26.2500008,14 C26.2500008,14.9663289 25.4663297,15.75 24.5000008,15.75 L10.5000008,15.75 C9.53203225,15.75 8.75000083,14.9679694 8.75000083,14 L8.75000083,7 C8.75000083,6.03367281 9.53367281,5.25 10.5000008,5.25 L24.5000008,5.25 C25.4663297,5.25 26.2500008,6.03367281 26.2500008,7 L26.2500008,14 Z M12.2500008,8.70078158 C11.2836728,8.70078158 10.5000008,9.48445272 10.5000008,10.4507816 C10.5000008,11.4171096 11.2836728,12.2007816 12.2500008,12.2007816 C13.2163289,12.2007816 14.0000008,11.4171096 14.0000008,10.4507816 C14.0000008,9.53203058 13.2179694,8.70078158 12.2500008,8.70078158 Z M22.7500008,8.70078158 C21.783672,8.70078158 21.0000008,9.48445272 21.0000008,10.4507816 C21.0000008,11.4171096 21.783672,12.2007816 22.7500008,12.2007816 C23.7163297,12.2007816 24.5000008,11.4171096 24.5000008,10.4507816 C24.5000008,9.53203058 23.7179703,8.70078158 22.7500008,8.70078158 Z" id="Shape"></path>
                </g>
            </g>
        </g>
    </g>
</svg>