<?xml version="1.0" encoding="UTF-8"?>
<svg width="20px" height="20px" viewBox="0 0 20 20" version="1.1" xmlns="http://www.w3.org/2000/svg" xmlns:xlink="http://www.w3.org/1999/xlink">
    <title>emoji</title>
    <g id="Page-1" stroke="none" stroke-width="1" fill="none" fill-rule="evenodd">
        <g id="Medium-1" transform="translate(-1338.000000, -806.500000)" fill="#D1D1D1" fill-rule="nonzero">
            <g id="chat-group-screen" transform="translate(925.000000, 362.000000)">
                <g id="emoji" transform="translate(413.000000, 444.500000)">
                    <path d="M10,13.75 C11.4531255,13.75 12.4687505,13.0664063 13.0624998,12.4257815 C13.4101558,12.0468748 14.0039062,12.0195317 14.3867183,12.3710942 C14.765625,12.7226567 14.7890627,13.316406 14.4375002,13.6953127 C13.5820317,14.6289063 12.0976567,15.625 10,15.625 C7.90234387,15.625 6.41796887,14.6289063 5.56249976,13.6953127 C5.21093726,13.316406 5.19921899,12.7226567 5.61328113,12.3710942 C5.99609375,12.0195317 6.58984363,12.0468748 6.93750024,12.4257815 C7.53125012,13.0664063 8.54687512,13.75 10,13.75 Z M8.14062476,8.125 C8.14062476,8.81640613 7.578125,9.375 6.89062476,9.375 C6.19921863,9.375 5.64062476,8.81640613 5.64062476,8.125 C5.64062476,7.43359327 6.19921863,6.875 6.89062476,6.875 C7.578125,6.875 8.14062476,7.43359327 8.14062476,8.125 Z M11.8906248,8.125 C11.8906248,7.43359327 12.4492192,6.875 13.1406248,6.875 C13.828125,6.875 14.3906248,7.43359327 14.3906248,8.125 C14.3906248,8.81640613 13.828125,9.375 13.1406248,9.375 C12.4492192,9.375 11.8906248,8.81640613 11.8906248,8.125 Z M20,10 C20,15.5234373 15.5234373,20 10,20 C4.47656274,20 0,15.5234373 0,10 C0,4.47656274 4.47656274,0 10,0 C15.5234373,0 20,4.47656274 20,10 Z M10,1.875 C5.51171899,1.875 1.875,5.51171899 1.875,10 C1.875,14.488281 5.51171899,18.125 10,18.125 C14.488281,18.125 18.125,14.488281 18.125,10 C18.125,5.51171899 14.488281,1.875 10,1.875 Z" id="Shape"></path>
                </g>
            </g>
        </g>
    </g>
</svg>