<?xml version="1.0" encoding="UTF-8"?>
<svg width="27.5000007px" height="22px" viewBox="0 0 27.5000007 22" version="1.1" xmlns="http://www.w3.org/2000/svg" xmlns:xlink="http://www.w3.org/1999/xlink">
    <title>chatBot-green</title>
    <g id="Page-1" stroke="none" stroke-width="1" fill="none" fill-rule="evenodd">
        <g id="Medium-1" transform="translate(-943.000000, -496.750000)" fill="#1B7654" fill-rule="nonzero">
            <g id="chat-group-screen" transform="translate(925.000000, 362.000000)">
                <g id="chatBot-green" transform="translate(18.000000, 134.750000)">
                    <path d="M26.125,6.83632839 C25.3150401,6.83632839 25.0318749,7.40824234 24.9635534,7.52382839 L23.375,7.52382839 L23.375,3.4375 C23.375,1.53914094 21.8367193,0 19.9375,0 L7.5625,0 C5.66328138,0 4.125,1.53914094 4.125,3.4375 L4.125,7.52382839 L2.53644526,7.52382839 C2.4681251,7.44648385 2.1849612,6.83632839 1.375,6.83632839 C0.64195323,6.83632839 0,7.42585969 0,8.21132839 C0,8.99765664 0.64324224,9.54765677 1.375,9.54765677 C2.1849612,9.54765677 2.46812576,8.97617227 2.53644592,8.89882839 L4.12500066,8.89882839 L4.12500066,14.3601568 C4.12500066,16.2585158 5.6641416,17.7976568 7.56250066,17.7976568 L9.62500066,17.8363284 L9.62500066,21.4452733 C9.62500066,21.6261714 9.74101615,22 10.1406257,22 C10.2489497,22 10.3553835,21.9652557 10.4455316,21.8999686 L15.8125007,17.8363284 L19.9375007,17.8365815 C21.8358597,17.8365815 23.3750007,16.2974405 23.3750007,14.3990815 L23.3750007,8.89882839 L24.9639842,8.89882839 C25.0335934,9.05351549 25.3171887,9.58632839 26.1250007,9.58632839 C26.8580474,9.58632839 27.5,8.99679708 27.5,8.25 C27.5,7.4636724 26.8597652,6.83632839 26.1250007,6.83632839 L26.125,6.83632839 Z M20.6250007,11 C20.6250007,11.7592584 20.009259,12.375 19.2500007,12.375 L8.25000066,12.375 C7.48945391,12.375 6.87500066,11.7605474 6.87500066,11 L6.87500066,5.5 C6.87500066,4.74074292 7.49074292,4.125 8.25000066,4.125 L19.2500007,4.125 C20.009259,4.125 20.6250007,4.74074292 20.6250007,5.5 L20.6250007,11 Z M9.62500066,6.83632839 C8.86574292,6.83632839 8.25000066,7.45207 8.25000066,8.21132839 C8.25000066,8.97058612 8.86574292,9.58632839 9.62500066,9.58632839 C10.3842584,9.58632839 11.0000007,8.97058612 11.0000007,8.21132839 C11.0000007,7.4894526 10.3855474,6.83632839 9.62500066,6.83632839 Z M17.8750007,6.83632839 C17.1157423,6.83632839 16.5000007,7.45207 16.5000007,8.21132839 C16.5000007,8.97058612 17.1157423,9.58632839 17.8750007,9.58632839 C18.634259,9.58632839 19.2500007,8.97058612 19.2500007,8.21132839 C19.2500007,7.4894526 18.6355481,6.83632839 17.8750007,6.83632839 Z" id="Shape"></path>
                </g>
            </g>
        </g>
    </g>
</svg>