<?xml version="1.0" encoding="UTF-8"?>
<svg width="19.9649096px" height="17.4995898px" viewBox="0 0 19.9649096 17.4995898" version="1.1" xmlns="http://www.w3.org/2000/svg" xmlns:xlink="http://www.w3.org/1999/xlink">
    <title>send</title>
    <g id="Page-1" stroke="none" stroke-width="1" fill="none" fill-rule="evenodd">
        <g id="Medium-1" transform="translate(-1372.999935, -807.750175)" fill="#000000" fill-rule="nonzero">
            <g id="chat-group-screen" transform="translate(925.000000, 362.000000)">
                <g id="send" transform="translate(447.999935, 445.750175)">
                    <path d="M19.9649096,8.71466862 C19.9649096,9.21466815 19.6670575,9.66701256 19.2067058,9.86349689 L1.7422528,17.3982619 C1.58358106,17.4666213 1.41631553,17.4995898 1.25045607,17.4995898 C0.913542003,17.4995898 0.582878083,17.362871 0.341081113,17.1070121 C-0.0190358458,16.7255281 -0.101887494,16.1597465 0.132331342,15.6902157 L3.00967523,9.93630993 L12.4667061,8.74998199 L3.00904998,7.56232487 L0.131706089,1.80841791 C-0.102395326,1.33966791 -0.0193952618,0.773652665 0.340690702,0.392402283 C0.702018827,0.0109182514 1.26100311,-0.105644592 1.74186239,0.101269356 L19.2422534,7.60138737 C19.7031904,7.79669987 19.9649096,8.24982452 19.9649096,8.71466862 L19.9649096,8.71466862 Z" id="Path"></path>
                </g>
            </g>
        </g>
    </g>
</svg>